<mxfile host="app.diagrams.net" modified="2023-03-09T10:46:35.655Z" agent="5.0 (Macintosh; Intel Mac OS X 10_15_7) AppleWebKit/537.36 (KHTML, like Gecko) Chrome/110.0.0.0 Safari/537.36" etag="PJRDWiQ4eXT_TgnYV7uq" version="21.0.4" type="github">
  <diagram name="Page-1" id="2YBvvXClWsGukQMizWep">
    <mxGraphModel dx="1294" dy="697" grid="1" gridSize="10" guides="1" tooltips="1" connect="1" arrows="1" fold="1" page="1" pageScale="1" pageWidth="850" pageHeight="1100" math="0" shadow="0">
      <root>
        <mxCell id="0" />
        <mxCell id="1" parent="0" />
        <mxCell id="e-Vx_0a9eDHp_WDu8aMH-1" value="proto-lib" style="rounded=1;whiteSpace=wrap;html=1;" vertex="1" parent="1">
          <mxGeometry x="350" y="130" width="120" height="60" as="geometry" />
        </mxCell>
        <mxCell id="e-Vx_0a9eDHp_WDu8aMH-2" value="account-service" style="rounded=1;whiteSpace=wrap;html=1;" vertex="1" parent="1">
          <mxGeometry x="190" y="50" width="210" height="100" as="geometry" />
        </mxCell>
        <mxCell id="e-Vx_0a9eDHp_WDu8aMH-3" value="vault-wrapper" style="rounded=1;whiteSpace=wrap;html=1;" vertex="1" parent="1">
          <mxGeometry x="192.5" y="300" width="185" height="100" as="geometry" />
        </mxCell>
        <mxCell id="e-Vx_0a9eDHp_WDu8aMH-5" value="vault-core" style="shape=ext;double=1;whiteSpace=wrap;html=1;aspect=fixed;" vertex="1" parent="1">
          <mxGeometry x="690" y="230" width="80" height="80" as="geometry" />
        </mxCell>
        <mxCell id="e-Vx_0a9eDHp_WDu8aMH-12" value="proto-lib" style="rounded=1;whiteSpace=wrap;html=1;" vertex="1" parent="1">
          <mxGeometry x="340" y="380" width="120" height="60" as="geometry" />
        </mxCell>
      </root>
    </mxGraphModel>
  </diagram>
</mxfile>
